<svg width="33" height="33" viewBox="0 0 33 33" fill="none" xmlns="http://www.w3.org/2000/svg">
<path d="M22.1343 2.66464C22.4033 2.66469 22.6626 2.75827 22.8687 2.92734L22.9537 3.00351C23.1709 3.2207 23.2925 3.5157 23.2925 3.82285V6.89023H29.1763C29.4452 6.89023 29.7046 6.98404 29.9107 7.15292L29.9957 7.2291C30.2128 7.44628 30.3354 7.7413 30.3355 8.04843V29.1764C30.3355 29.4452 30.2417 29.7046 30.0728 29.9107L29.9957 29.9957C29.7784 30.213 29.4836 30.3355 29.1763 30.3355H3.82281C3.55392 30.3355 3.29457 30.2419 3.08844 30.0728L3.00348 29.9957C2.78647 29.7785 2.66461 29.4834 2.66461 29.1764V8.04843L2.67047 7.93417C2.69306 7.70694 2.78261 7.49168 2.92731 7.31503L3.00348 7.2291C3.22067 7.01191 3.51568 6.89032 3.82281 6.89023H9.70758V3.82285C9.70766 3.55406 9.8004 3.29456 9.9693 3.08847L10.0464 3.00351C10.2637 2.78634 10.5586 2.66465 10.8658 2.66464C11.1347 2.66464 11.394 2.75831 11.6002 2.92734L11.6851 3.00351C11.9023 3.2207 12.0239 3.5157 12.024 3.82285V6.89023H20.9752V3.82285C20.9752 3.55401 21.0689 3.29458 21.2379 3.08847L21.315 3.00351C21.5322 2.78641 21.8272 2.66464 22.1343 2.66464ZM4.98199 28.0182H28.0181V16.2496H4.98199V28.0182ZM4.98199 13.9332H28.0181V9.20761H4.98199V13.9332Z" fill="#E0DCC3" stroke="#141414" stroke-width="0.5"/>
</svg>
