<svg width="60" height="60" viewBox="0 0 60 60" fill="none" xmlns="http://www.w3.org/2000/svg">
<path d="M47.0796 21.3354L30.09 38.1798L13.2468 21.1902C12.7806 20.7192 12.0204 20.7168 11.55 21.183C11.0796 21.6492 11.0766 22.4094 11.5428 22.8792L29.0592 40.548C29.2782 40.7688 29.5602 40.8858 29.8464 40.9014C29.9298 40.9062 30.0132 40.9008 30.0954 40.8888C30.1278 40.8936 30.159 40.9014 30.1914 40.902C30.5178 40.9194 30.8508 40.8048 31.1004 40.5564L48.7686 23.0388C49.2396 22.5726 49.2426 21.813 48.7758 21.342C48.309 20.871 47.5494 20.8686 47.0796 21.3354Z" fill="#E0DCC3"/>
</svg>
