<svg width="36" height="42" viewBox="0 0 36 42" fill="none" xmlns="http://www.w3.org/2000/svg">
<path d="M5.5 26C8.26142 26 10.5 23.7614 10.5 21C10.5 18.2386 8.26142 16 5.5 16C2.73858 16 0.5 18.2386 0.5 21C0.5 23.7614 2.73858 26 5.5 26Z" stroke="#E0DCC3" stroke-linejoin="round"/>
<path d="M30.5 11C33.2614 11 35.5 8.76142 35.5 6C35.5 3.23858 33.2614 1 30.5 1C27.7386 1 25.5 3.23858 25.5 6C25.5 8.76142 27.7386 11 30.5 11Z" stroke="#E0DCC3" stroke-linejoin="round"/>
<path d="M25.5 8.5L9.25 18.5" stroke="#E0DCC3"/>
<path d="M30.5 41C33.2614 41 35.5 38.7614 35.5 36C35.5 33.2386 33.2614 31 30.5 31C27.7386 31 25.5 33.2386 25.5 36C25.5 38.7614 27.7386 41 30.5 41Z" stroke="#E0DCC3" stroke-linejoin="round"/>
<path d="M9.25 24.75L25.5 33.5" stroke="#E0DCC3"/>
</svg>
