<?xml version="1.0" standalone="no"?>
<!DOCTYPE svg PUBLIC "-//W3C//DTD SVG 20010904//EN"
 "http://www.w3.org/TR/2001/REC-SVG-20010904/DTD/svg10.dtd">
<svg version="1.0" xmlns="http://www.w3.org/2000/svg"
 width="979.000000pt" height="544.000000pt" viewBox="0 0 979.000000 544.000000"
 preserveAspectRatio="xMidYMid meet">

<g transform="translate(0.000000,544.000000) scale(0.100000,-0.100000)"
fill="#000000" stroke="none">
<path d="M1245 4328 c-22 -100 -93 -170 -197 -192 -27 -6 -28 -8 -28 -76 0
-57 3 -70 16 -70 8 0 29 -13 45 -29 49 -50 37 -121 -27 -147 -34 -14 -34 -15
-34 -78 0 -62 1 -64 29 -74 43 -15 65 -54 58 -102 -6 -43 -18 -59 -59 -77 -26
-12 -28 -17 -28 -73 0 -58 1 -62 28 -71 50 -17 77 -92 51 -141 -6 -11 -26 -26
-45 -34 -34 -14 -34 -15 -34 -79 0 -61 2 -65 25 -71 61 -15 88 -110 43 -151
-13 -11 -33 -26 -45 -32 -20 -10 -23 -20 -23 -71 0 -59 1 -60 35 -74 79 -33
68 -155 -16 -181 -16 -5 -19 -16 -19 -70 0 -59 2 -63 25 -69 38 -10 65 -45 65
-85 0 -39 -20 -69 -62 -96 -25 -16 -28 -23 -28 -75 0 -50 3 -60 20 -65 87 -28
96 -146 13 -180 -32 -14 -33 -16 -33 -74 0 -59 0 -60 39 -82 40 -22 51 -42 51
-90 0 -33 -32 -75 -65 -83 -23 -6 -25 -10 -25 -71 l0 -64 43 -11 c82 -22 126
-56 158 -123 16 -34 29 -67 29 -73 0 -7 7 -15 16 -18 9 -3 1202 -6 2652 -6
l2637 0 19 65 c11 38 29 75 45 91 72 72 185 90 275 44 58 -30 113 -103 122
-161 4 -22 12 -39 18 -39 6 0 295 0 641 -1 347 -1 662 -1 702 0 l72 1 17 55
c31 97 94 153 184 164 l45 6 0 70 c0 65 -2 70 -22 73 -31 4 -73 58 -73 91 0
37 33 78 70 86 30 7 30 7 30 76 0 56 -3 69 -16 69 -31 0 -73 40 -80 75 -9 48
13 87 56 101 35 12 35 12 38 78 3 58 1 66 -15 66 -32 0 -73 42 -80 82 -7 48
14 82 62 99 l35 13 0 68 c0 53 -3 68 -15 68 -48 0 -85 43 -85 100 0 32 48 80
81 80 17 0 19 8 19 69 0 69 0 69 -30 76 -59 13 -90 92 -55 142 8 12 31 27 50
33 35 12 35 12 35 73 l0 62 -40 17 c-41 17 -60 47 -60 94 0 31 50 84 79 84 19
0 21 6 21 70 0 64 -2 70 -21 70 -11 0 -34 13 -50 29 -51 52 -33 132 34 149 32
8 32 8 35 80 3 69 2 72 -20 72 -64 1 -100 89 -59 142 12 14 35 29 51 33 30 7
30 7 30 74 l0 68 -52 11 c-96 23 -144 67 -177 164 l-18 53 -694 3 c-382 1
-703 0 -714 -2 -14 -4 -24 -19 -32 -48 -23 -85 -83 -147 -167 -169 -52 -14
-106 -7 -164 23 -54 28 -74 53 -107 133 l-24 60 -2650 3 -2649 2 -7 -32z
m5588 -350 c34 -18 46 -40 47 -82 0 -56 -30 -86 -87 -86 -56 0 -93 33 -93 82
0 72 72 119 133 86z m20 -338 c34 -27 41 -63 21 -106 -18 -38 -47 -54 -94 -54
-44 0 -71 29 -77 82 -5 40 -2 50 20 72 33 33 92 35 130 6z m-20 -311 c68 -31
69 -131 0 -167 -67 -36 -133 9 -133 90 1 68 68 107 133 77z m21 -338 c29 -25
38 -60 26 -97 -20 -60 -79 -81 -139 -49 -33 16 -41 33 -41 79 0 80 93 120 154
67z m7 -327 c56 -60 12 -159 -70 -159 -59 0 -91 34 -91 96 0 39 4 51 26 68 39
31 103 28 135 -5z m-29 -306 c36 -21 47 -40 48 -85 0 -34 -5 -46 -31 -67 -36
-31 -83 -34 -118 -7 -28 22 -40 105 -19 132 31 38 81 49 120 27z m-7 -322 c40
-17 57 -45 57 -94 0 -75 -103 -112 -157 -57 -47 46 -23 146 38 158 12 2 23 5
25 6 1 0 18 -5 37 -13z m38 -345 c39 -38 21 -127 -30 -150 -40 -18 -73 -13
-104 18 -23 24 -29 38 -29 75 0 37 5 48 28 66 34 28 103 23 135 -9z"/>
</g>
</svg>
